<mxfile host="app.diagrams.net" modified="2023-10-19T09:47:50.442Z" agent="Mozilla/5.0 (Macintosh; Intel Mac OS X 10_15_7) AppleWebKit/605.1.15 (KHTML, like Gecko) Version/16.0 Safari/605.1.15" version="22.0.5" etag="39Rfqrcu_VYLDwK06Sky" type="github">
  <diagram name="第 1 页" id="Ah73EUX29F2dhR3XA5Gu">
    <mxGraphModel>
      <root>
        <mxCell id="0" />
        <mxCell id="1" parent="0" />
      </root>
    </mxGraphModel>
  </diagram>
</mxfile>
